<svg width="16" height="16" viewBox="0 0 16 16" fill="none" xmlns="http://www.w3.org/2000/svg">
<path d="M13.0811 7.15837H8.7027V2.81448C8.75676 2.38009 8.37838 2 7.94595 2C7.51351 2 7.13514 2.38009 7.13514 2.81448V7.21267H2.81081C2.37838 7.15837 2 7.53846 2 7.97285C2 8.40724 2.37838 8.78733 2.81081 8.78733H7.18919V13.1855C7.18919 13.6199 7.56757 14 8 14C8.43243 14 8.81081 13.6199 8.81081 13.1855V8.78733H13.1892C13.6216 8.78733 14 8.40724 14 7.97285C13.8919 7.53846 13.5135 7.15837 13.0811 7.15837Z" fill="white"/>
</svg>
