<svg width="13" height="13" viewBox="0 0 13 13" fill="none" xmlns="http://www.w3.org/2000/svg">
<path d="M10.5345 6.14502C10.4796 8.61405 8.44953 10.5893 6.03534 10.5893C4.49904 10.5893 3.18222 9.82113 2.3592 8.72378L3.40169 7.68131H0.109619V10.9733L1.26184 9.82113C2.3592 11.2477 4.0601 12.1256 6.03534 12.1256C9.32741 12.1256 12.0159 9.49193 12.0708 6.19989L10.5345 6.14502Z" fill="#3D98D3"/>
<path d="M1.5363 6.03541C1.5363 3.51151 3.56641 1.48142 6.09033 1.48142C7.6815 1.48142 9.05319 2.30443 9.87621 3.51151L8.72399 4.66373H12.0161V1.37168L10.9187 2.46903C9.76647 0.932746 8.0107 0 6.03546 0C2.68852 0 0 2.6885 0 6.03541C0 6.09028 0 6.09028 0 6.14515H1.5363C1.5363 6.09028 1.5363 6.09028 1.5363 6.03541Z" fill="#3D98D3"/>
</svg>
