<svg width="16" height="16" viewBox="0 0 16 16" fill="none" xmlns="http://www.w3.org/2000/svg">
<path d="M6.12234 12C5.78723 12 5.5 11.6852 5.5 11.3179C5.5 11.108 5.54787 10.9506 5.69149 10.8457L8.51596 7.75L5.69149 4.65432C5.59574 4.54938 5.5 4.39198 5.5 4.1821C5.5 3.81481 5.78723 3.5 6.12234 3.5C6.31383 3.5 6.45745 3.55247 6.55319 3.70988L9.80851 7.27778C9.90426 7.38272 10 7.59259 10 7.75C10 7.90741 9.95213 8.11728 9.80851 8.22222L6.55319 11.7901C6.45745 11.8951 6.31383 12 6.12234 12Z" fill="black"/>
</svg>
