<svg width="256" height="256" viewBox="0 0 256 256" fill="none" xmlns="http://www.w3.org/2000/svg">
<rect width="256" height="256" rx="42.6667" fill="#E03231"/>
<path d="M128 197.332C115.989 194.221 104.728 188.731 94.8846 181.189C85.0412 173.646 76.8166 164.204 70.6995 153.425C64.5824 142.645 60.6977 130.748 59.2762 118.44C57.8547 106.131 58.9255 93.6633 62.4248 81.7764C86.4601 82.8747 109.979 74.5856 128 58.6653C146.02 74.5856 169.539 82.8747 193.574 81.7764C197.732 95.8896 198.411 110.642 195.758 124.825" stroke="white" stroke-width="13.3333" stroke-linecap="round" stroke-linejoin="round"/>
<path d="M154.122 152.982L171.241 170.094M117.908 137.673C117.908 143.212 120.11 148.523 124.028 152.439C127.947 156.356 133.262 158.556 138.804 158.556C144.346 158.556 149.661 156.356 153.579 152.439C157.498 148.523 159.7 143.212 159.7 137.673C159.7 132.135 157.498 126.823 153.579 122.907C149.661 118.99 144.346 116.79 138.804 116.79C133.262 116.79 127.947 118.99 124.028 122.907C120.11 126.823 117.908 132.135 117.908 137.673Z" stroke="white" stroke-width="10.4416" stroke-linecap="round" stroke-linejoin="round"/>
</svg>
