<svg viewBox="0 0 128 128" fill="none" xmlns="http://www.w3.org/2000/svg">
<path d="M0 20C0 8.95431 8.95431 0 20 0H108C119.046 0 128 8.95431 128 20V108C128 119.046 119.046 128 108 128H20C8.95431 128 0 119.046 0 108V20Z" fill="#E03231"/>
<path d="M61.7923 26.8347C63.0528 25.7211 64.9457 25.7212 66.2063 26.8347C74.5674 34.2214 85.4813 38.068 96.635 37.5583L96.9202 37.5573C98.337 37.6132 99.5779 38.5659 99.9846 39.946C102.214 47.513 102.578 55.4225 101.156 63.0251C100.817 64.8345 99.0753 66.0276 97.2659 65.6892C95.4564 65.3506 94.2634 63.609 94.6018 61.7995C95.6812 56.0314 95.5724 50.0607 94.2298 44.2654C83.256 44.1682 72.6236 40.4386 63.9993 33.6648C55.3759 40.4377 44.7451 44.1676 33.7727 44.2654C32.6686 49.0344 32.3865 53.9628 32.9495 58.8376C33.6089 64.5471 35.4106 70.0664 38.2483 75.0671C41.0862 80.068 44.9028 84.4492 49.47 87.9489C54.0371 91.4485 59.2623 93.9957 64.8352 95.4392C66.6173 95.9008 67.6883 97.7196 67.2268 99.5017C66.7653 101.284 64.9463 102.355 63.1643 101.893C56.7274 100.226 50.6914 97.2829 45.4153 93.24C40.1392 89.1971 35.7296 84.1366 32.4505 78.3581C29.1713 72.5795 27.0885 66.2009 26.3264 59.6023C25.5644 53.0037 26.1389 46.3195 28.0149 39.947L28.1067 39.6765C28.6215 38.3552 29.927 37.4926 31.3645 37.5583C42.5181 38.068 53.4312 34.2213 61.7923 26.8347Z" fill="white"/>
<path d="M67.9973 56.1328C67.9973 54.5864 69.2509 53.3328 70.7973 53.3328H81.1973C82.7437 53.3328 83.9973 54.5864 83.9973 56.1328C83.9973 57.6792 82.7437 58.9328 81.1973 58.9328H70.7973C69.2509 58.9328 67.9973 57.6792 67.9973 56.1328Z" fill="white"/>
<path d="M67.9973 68.1328C67.9973 66.5864 69.2509 65.3328 70.7973 65.3328H81.1973C82.7437 65.3328 83.9973 66.5864 83.9973 68.1328C83.9973 69.6792 82.7437 70.9328 81.1973 70.9328H70.7973C69.2509 70.9328 67.9973 69.6792 67.9973 68.1328Z" fill="white"/>
<path d="M91.7561 74.3191C92.6828 73.0812 94.4371 72.8289 95.675 73.7556C96.913 74.6823 97.1652 76.4366 96.2385 77.6746L83.1008 95.2244C82.6376 95.8431 81.9393 96.2429 81.1711 96.3289C80.4027 96.4147 79.6328 96.1789 79.0442 95.6775L70.1819 88.1287C69.0048 87.126 68.863 85.3586 69.8655 84.1814C70.8682 83.0043 72.6356 82.8625 73.8127 83.865L80.4045 89.4802L91.7561 74.3191Z" fill="white"/>
</svg>
